Motion_pl03
version=1
nRows=16
nColumns=43
inDegrees=yes
endheader
time	pelvis_tilt	pelvis_list	pelvis_rotation	pelvis_tx	pelvis_ty	pelvis_tz	hip_flexion_r	hip_adduction_r	hip_rotation_r	knee_angle_r	ankle_angle_r	subtalar_angle_r	mtp_angle_r	hip_flexion_l	hip_adduction_l	hip_rotation_l	knee_angle_l	ankle_angle_l	subtalar_angle_l	mtp_angle_l	lumbar_extension	lumbar_bending	lumbar_rotation	neck_flexion	neck_lateral_bending	neck_rotation	arm_flex_r	arm_add_r	arm_rot_r	elbow_flex_r	pro_sup_r	wrist_flex_r	wrist_dev_r	hand_finger_flex_r	arm_flex_l	arm_add_l	arm_rot_l	elbow_flex_l	pro_sup_l	wrist_flex_l	wrist_dev_l	hand_finger_flex_l
      1.09500000	     -3.02086002	    -10.80218242	     89.36448268	      0.00584161	      1.67740678	      1.79160038	     93.47253353	     -9.79834777	      8.04919716	   -125.76654324	     12.76638421	     16.49862876	     12.43891721	     88.86334273	    -12.09194805	      5.01473339	   -124.32250225	     29.00031146	     15.82130847	     14.61101865	    -43.78579741	     -4.15373272	      2.74812936	      6.98630669	      4.61359165	     -4.11658764	    118.92238894	    -71.10114188	     16.67202448	     79.31475842	    147.31941060	     24.82056963	     23.27947006	      2.27924020	    103.82782508	    -67.67369844	      8.39860151	     84.40718901	    140.20793392	     17.03561330	     29.41644096	     27.92064331
      1.09750000	     -3.25443612	    -11.39345902	     89.12940829	      0.00653683	      1.67754084	      1.79092636	     93.94735412	     -9.58190263	      8.20983399	   -125.61884369	     12.29746205	     16.06816707	     12.95371225	     89.13793109	    -12.16320229	      4.74274323	   -124.18459814	     28.88165421	     15.60356094	     15.14445390	    -43.45707924	     -4.64249768	      3.19144400	      7.74836217	      4.84783549	     -4.90847535	    118.21039741	    -72.89166333	     16.65226076	     80.96177833	    144.80749592	     23.82183912	     26.17009752	      1.54345775	    102.86274014	    -68.39134970	      8.96516070	     85.56270859	    137.37375985	     12.46023291	     31.57076660	     23.81651940
      1.10000000	     -3.25354014	    -11.39208504	     89.13062295	      0.00649279	      1.67761743	      1.79089289	     93.94816864	     -9.58130055	      8.20986876	   -125.61964611	     12.29757576	     16.06813205	     12.95374685	     89.13812554	    -12.16310158	      4.74280040	   -124.18432712	     28.88171019	     15.60352906	     15.14448510	    -43.45652613	     -4.64365945	      3.19172577	      7.74836475	      4.84780958	     -4.90851838	    118.21011446	    -72.89121859	     16.65273716	     80.96213026	    144.80738236	     23.82176622	     26.17000626	      1.54337244	    102.86321102	    -68.39156120	      8.96482399	     85.56290242	    137.37369359	     12.46027892	     31.57097655	     23.81646834
      1.10250000	     -3.25333002	    -11.39146995	     89.13126189	      0.00646167	      1.67765272	      1.79085686	     93.94862808	     -9.58088740	      8.20972720	   -125.62000705	     12.29762984	     16.06808689	     12.95376491	     89.13818563	    -12.16299247	      4.74281601	   -124.18418038	     28.88173424	     15.60351345	     15.14450085	    -43.45633664	     -4.64415535	      3.19192981	      7.74834607	      4.84779653	     -4.90854364	    118.20993162	    -72.89091612	     16.65302908	     80.96240067	    144.80732834	     23.82171301	     26.16995411	      1.54331901	    102.86352858	    -68.39162845	      8.96462709	     85.56312051	    137.37366657	     12.46026571	     31.57106746	     23.81642263
      1.10500000	     -3.25303033	    -11.39122416	     89.13167505	      0.00644071	      1.67768836	      1.79082467	     93.94887294	     -9.58056323	      8.20972846	   -125.62054403	     12.29769120	     16.06805531	     12.95378294	     89.13819053	    -12.16282274	      4.74281273	   -124.18404629	     28.88175261	     15.60349958	     15.14451622	    -43.45619026	     -4.64451691	      3.19217890	      7.74831125	      4.84778366	     -4.90857135	    118.20971943	    -72.89056919	     16.65335537	     80.96275618	    144.80728205	     23.82164350	     26.16989827	      1.54325643	    102.86391771	    -68.39166337	      8.96440487	     85.56345596	    137.37364752	     12.46021548	     31.57114153	     23.81635824
      1.10750000	     -3.25264944	    -11.39131508	     89.13191171	      0.00642736	      1.67772301	      1.79079198	     93.94894276	     -9.58030040	      8.20986779	   -125.62121901	     12.29775258	     16.06803835	     12.95380094	     89.13814707	    -12.16260056	      4.74279842	   -124.18391883	     28.88176619	     15.60348635	     15.14453118	    -43.45611605	     -4.64475497	      3.19247622	      7.74826045	      4.84776836	     -4.90860076	    118.20947059	    -72.89018279	     16.65371986	     80.96319549	    144.80724430	     23.82155741	     26.16983678	      1.54318474	    102.86437624	    -68.39166913	      8.96415720	     85.56390369	    137.37363707	     12.46012853	     31.57119999	     23.81627497
      1.11000000	     -3.25216584	    -11.39175875	     89.13196999	      0.00642197	      1.67775589	      1.79075892	     93.94883469	     -9.58009831	      8.21017646	   -125.62203150	     12.29781066	     16.06804173	     12.95381891	     89.13805729	    -12.16233270	      4.74277795	   -124.18379687	     28.88177536	     15.60347291	     15.14454574	    -43.45613465	     -4.64485618	      3.19282202	      7.74819430	      4.84774877	     -4.90863143	    118.20917839	    -72.88976971	     16.65412409	     80.96371393	    144.80721646	     23.82145478	     26.16976896	      1.54310421	    102.86490308	    -68.39165016	      8.96388331	     85.56446036	    137.37363635	     12.46000504	     31.57124430	     23.81617274
      1.11250000	     -3.23307331	    -11.39700071	     89.11898442	      0.00625472	      1.67765503	      1.79052150	     93.92485298	     -9.55369383	      8.23506488	   -125.64644892	     12.31188712	     16.06983693	     12.95610691	     89.11825750	    -12.13039042	      4.74442447	   -124.17473720	     28.88282752	     15.60084591	     15.14641474	    -43.42125585	     -4.62833120	      3.21586358	      7.74062480	      4.84491232	     -4.91275791	    118.17942008	    -72.86307149	     16.69565561	     81.03410265	    144.80755582	     23.80560574	     26.16468062	      1.53158646	    102.93280549	    -68.39336304	      8.92697788	     85.64346912	    137.37482509	     12.44141922	     31.57701513	     23.80141933
      1.11500000	     -3.23134468	    -11.39840811	     89.11789573	      0.00630810	      1.67768520	      1.79048747	     93.92599778	     -9.55365634	      8.23564220	   -125.64692650	     12.31192600	     16.06988777	     12.95614549	     89.11800112	    -12.13016491	      4.74473242	   -124.17498569	     28.88289451	     15.60074502	     15.14645100	    -43.42346756	     -4.62792132	      3.21491717	      7.74040363	      4.84486404	     -4.91282286	    118.17884464	    -72.86315160	     16.69626482	     81.03494320	    144.80763436	     23.80534876	     26.16468761	      1.53138214	    102.93272578	    -68.39290870	      8.92718137	     85.64430716	    137.37478940	     12.44126307	     31.57711050	     23.80119155
      1.11750000	     -3.23067768	    -11.39916247	     89.11751940	      0.00631316	      1.67771151	      1.79046088	     93.92653503	     -9.55348989	      8.23585980	   -125.64740941	     12.31191416	     16.06989340	     12.95616335	     89.11786058	    -12.13005775	      4.74490092	   -124.17509254	     28.88292457	     15.60069357	     15.14646736	    -43.42452103	     -4.62770855	      3.21459081	      7.74028989	      4.84482775	     -4.91285183	    118.17852723	    -72.86316003	     16.69659417	     81.03542999	    144.80768270	     23.80520874	     26.16467945	      1.53127834	    102.93279350	    -68.39271820	      8.92721537	     85.64479394	    137.37479058	     12.44114913	     31.57714768	     23.80106523
      1.12000000	     -3.16978169	    -11.39653464	     89.13411432	      0.00660602	      1.67819963	      1.79009587	     93.81197123	     -9.48834225	      8.14781152	   -125.61004514	     12.56402456	     16.04832644	     13.03168826	     89.00549878	    -12.12212662	      4.86528005	   -124.08487847	     28.97540965	     15.46428572	     15.20978689	    -43.58082850	     -4.61349604	      3.08861436	      7.93533989	      4.75764777	     -4.93469894	    117.59839584	    -73.62852128	     17.14879483	     81.93708529	    145.10458398	     23.17077432	     26.36412901	      1.08020979	    102.76620961	    -68.91403034	      8.92092080	     86.27938074	    137.42784345	     12.13491823	     31.98480250	     23.27803472
      1.12250000	     -3.16938292	    -11.39648862	     89.13428770	      0.00661709	      1.67822606	      1.79005266	     93.81256237	     -9.48831456	      8.14808189	   -125.60999376	     12.56393390	     16.04837573	     13.03170552	     89.00545697	    -12.12199131	      4.86525408	   -124.08505617	     28.97541789	     15.46428337	     15.20980270	    -43.58106923	     -4.61349360	      3.08895093	      7.93534348	      4.75764659	     -4.93469996	    117.59838002	    -73.62840691	     17.14878428	     81.93708981	    145.10460542	     23.17064273	     26.36416138	      1.08012252	    102.76641483	    -68.91406695	      8.92075046	     86.27946180	    137.42784000	     12.13480940	     31.98487572	     23.27790055
      1.12500000	     -3.16860103	    -11.39707789	     89.13426681	      0.00663712	      1.67825070	      1.79002524	     93.81280089	     -9.48839757	      8.14874591	   -125.61024057	     12.56385122	     16.04847623	     13.03172276	     89.00534500	    -12.12184856	      4.86523792	   -124.08524034	     28.97542051	     15.46427957	     15.20981806	    -43.58146176	     -4.61343441	      3.08935576	      7.93533000	      4.75763496	     -4.93470003	    117.59829054	    -73.62823849	     17.14884183	     81.93721120	    145.10463590	     23.17049203	     26.36418216	      1.08002679	    102.76668166	    -68.91406547	      8.92056323	     86.27966160	    137.42785115	     12.13466144	     31.98493429	     23.27774724
      1.12750000	     -3.16757625	    -11.39793665	     89.13431060	      0.00665261	      1.67827442	      1.78999333	     93.81296385	     -9.48844515	      8.14962538	   -125.61056252	     12.56375402	     16.04860613	     13.03173997	     89.00518369	    -12.12170954	      4.86524060	   -124.08541489	     28.97541954	     15.46427329	     15.20983288	    -43.58198215	     -4.61341600	      3.08984293	      7.93529915	      4.75761096	     -4.93469865	    117.59812944	    -73.62798204	     17.14897515	     81.93747302	    145.10467246	     23.17032071	     26.36418821	      1.07992214	    102.76701597	    -68.91402314	      8.92035735	     86.27998170	    137.42787776	     12.13447279	     31.98497722	     23.27757408
      1.13000000	     -3.14301889	    -11.41894856	     89.12511345	      0.00635741	      1.67828452	      1.78989673	     93.81134222	     -9.47530739	      8.20594854	   -125.59579886	     12.56110796	     16.05935599	     13.03375891	     88.98750401	    -12.10648229	      4.86876612	   -124.10295860	     28.97589980	     15.46294475	     15.21155711	    -43.57197571	     -4.57536610	      3.13290506	      7.93376062	      4.75502597	     -4.93474303	    117.58754183	    -73.61533670	     17.15669141	     81.98075471	    145.11206277	     23.14678401	     26.36766538	      1.06630717	    102.81789316	    -68.91103035	      8.88965394	     86.33554106	    137.43314929	     12.10722643	     31.98902515	     23.25514231
      1.13250000	     -3.14210310	    -11.41880416	     89.12511143	      0.00634778	      1.67830872	      1.78985306	     93.81199551	     -9.47519486	      8.20596975	   -125.59590719	     12.56100116	     16.05936896	     13.03377609	     88.98761749	    -12.10627364	      4.86875533	   -124.10301037	     28.97593333	     15.46293097	     15.21157266	    -43.57248684	     -4.57582760	      3.13270265	      7.93373301	      4.75498975	     -4.93474327	    117.58752917	    -73.61523295	     17.15672996	     81.98123933	    145.11214618	     23.14654812	     26.36769633	      1.06617613	    102.81787632	    -68.91081670	      8.88969301	     86.33586459	    137.43317796	     12.10704476	     31.98906034	     23.25495824
